<svg xmlns="http://www.w3.org/2000/svg" xmlns:xlink="http://www.w3.org/1999/xlink" width="400" height="400" viewBox="0 0 400 400">
<rect data-name="background" width="100%" height="100%" fill="#FFFFFF"/><g data-name="icon" fill="#000000" data="id:5723141" transform="translate(284.92882461704613,145.86202828012333) scale(1.5039891272494925)">
    <path d="M42.82,12.82c-0.97,0-0.97-1.51,0-1.51h1.6v-1.6c0-1.06,1.51-1.06,1.51,0v1.6h1.6c0.97,0,0.97,1.51,0,1.51h-1.6v1.6  c0,0.97-1.51,0.97-1.51,0v-1.6H42.82z M8.44,30.63c-1.06,0-1.06-1.51,0-1.51h1.24v-1.24c0-1.06,1.51-1.06,1.51,0v1.24h1.24  c0.97,0,0.97,1.51,0,1.51h-1.24v1.24c0,0.97-1.51,0.97-1.51,0v-1.24H8.44z M22.97,24.42c0,0.97-1.6,0.97-1.6,0v-1.42  c0.09-1.06,0.71-1.86,1.86-1.77c0.53,0,0.97,0,1.42,0.09c1.06,0.09,0.89,1.6-0.09,1.51c-0.44,0-0.89-0.09-1.42-0.09  c-0.18,0-0.18,0.09-0.18,0.35V24.42z M22.35,27.35c-1.06,0.09-1.15-1.51-0.18-1.6C23.24,25.67,23.33,27.26,22.35,27.35L22.35,27.35z   M28.02,12.82c-6.29,0-11.43,5.14-11.43,11.52c0,6.29,5.14,11.43,11.43,11.43c6.38,0,11.52-5.14,11.52-11.43  C39.54,17.96,34.4,12.82,28.02,12.82L28.02,12.82z M28.02,48.79c-0.97,0-1.86,0.8-1.86,1.86c0,1.06,0.89,1.86,1.86,1.86  c1.06,0,1.95-0.8,1.95-1.86C29.97,49.59,29.09,48.79,28.02,48.79L28.02,48.79z M28.02,47.2c1.68,0,3.01,1.15,3.37,2.66  c5.49-0.89,6.47-5.85,5.05-10.63c-0.44-1.77-1.15-3.19-1.68-3.72c-1.95,1.15-4.25,1.86-6.73,1.86c-2.39,0-4.7-0.71-6.65-1.86  c-0.53,0.53-1.24,1.95-1.77,3.72c-1.33,4.79-0.44,9.75,5.14,10.63C25.01,48.35,26.43,47.2,28.02,47.2L28.02,47.2z M29,53.93  c0.35,1.95,0.71,3.81,1.15,5.67c0.35,1.51,0.8,2.66,2.48,3.01c2.92,0.71,5.49,0.44,6.91-0.35c0.62-0.35,1.24-0.89,0.89-1.6  c-0.35-0.8-1.51-1.68-3.72-2.66c-0.09,0-0.44-0.27-0.44-0.71l-0.09-7.98c-1.15,1.15-2.75,1.86-4.79,2.13  C31.13,52.69,30.15,53.67,29,53.93L29,53.93z M19.96,49.33l-0.09,7.98c0,0.35-0.18,0.62-0.44,0.71c-2.22,0.97-3.37,1.86-3.72,2.66  c-0.35,0.71,0.27,1.24,0.89,1.6c1.42,0.8,3.99,1.06,6.91,0.35c1.68-0.35,2.13-1.6,2.48-3.19c0.44-1.77,0.8-3.63,1.15-5.49  c-1.15-0.27-2.13-1.24-2.39-2.48C22.71,51.19,21.11,50.48,19.96,49.33L19.96,49.33z M51.77,30.1c-1.6,0-2.84,1.24-2.84,2.84  c0,1.51,1.24,2.84,2.84,2.84c1.6,0,2.84-1.33,2.84-2.84C54.61,31.34,53.37,30.1,51.77,30.1L51.77,30.1z M49.65,36.74  c-1.15-0.62-1.95-1.68-2.22-3.01c-1.51,0.53-3.46,1.33-4.16,2.66c-0.18,0.53-0.89,0.62-1.33,0.18c-1.06-1.42-2.66-2.57-4.34-3.37  c-0.44,0.53-0.97,0.97-1.6,1.42c0.8,0.89,1.51,2.39,1.95,4.16c0.27,0.71,0.44,1.51,0.53,2.22c1.95,0.8,4.08,0.89,5.94,0.35  c1.86-0.53,3.63-1.6,5.23-3.46V36.74z M52.75,37.36v24.72c0,1.33-1.95,1.33-1.95,0V37.36c0.35,0.09,0.62,0.09,0.97,0.09  C52.13,37.45,52.48,37.45,52.75,37.36L52.75,37.36z M50.8,28.5V17.34c0-1.24,1.95-1.24,1.95,0V28.5c-0.27-0.09-0.62-0.18-0.97-0.18  C51.42,28.32,51.15,28.41,50.8,28.5L50.8,28.5z M31.04,41.17H25.1v2.39h5.94V41.17z M24.3,39.58h7.53c0.44,0,0.8,0.35,0.8,0.8v3.99  c0,0.44-0.35,0.8-0.8,0.8H24.3c-0.44,0-0.8-0.35-0.8-0.8v-3.99C23.51,39.93,23.86,39.58,24.3,39.58L24.3,39.58z M53.9,26.99  c1.42,0.27,2.48,0,3.54-0.35c1.68-0.44,3.54-0.89,6.91,0v-7.18c-3.54-1.15-5.14-0.62-6.65-0.18c-1.15,0.35-2.22,0.71-3.81,0.53  V26.99z M28.11,33.73c-3.72,0-8.77-2.22-9.39-6.29v-4.43c0.18-2.66,1.33-4.61,4.25-4.43c1.68,0,3.37,0.35,5.05,0.35  c1.68,0,3.37-0.27,5.05-0.35c3.01,0,4.16,1.6,4.34,4.43v4.43C36.71,31.6,31.84,33.64,28.11,33.73L28.11,33.73z M28.02,32.22  c3.37-0.09,6.73-1.51,7.8-4.87v-4.34c-0.09-1.77-0.62-3.01-2.66-2.92c-1.68,0.09-3.37,0.35-5.14,0.35c-1.68,0-3.37-0.27-5.05-0.35  c-2.04-0.09-2.57,1.15-2.66,2.92v4.34C21.38,30.72,24.75,32.13,28.02,32.22L28.02,32.22z M37.77,52.87c1.06-0.18,1.86-1.15,1.86-2.3  v-7.53c-0.35-0.09-0.71-0.18-1.06-0.27c0,1.6-0.27,3.19-0.89,4.52L37.77,52.87z M39.63,32.49v-2.13l0,0  c-0.27,0.53-0.62,1.06-0.97,1.6C38.92,32.13,39.28,32.31,39.63,32.49L39.63,32.49z M16.5,30.27v1.86c0.27-0.09,0.62-0.18,0.97-0.27  C17.13,31.43,16.77,30.89,16.5,30.27L16.5,30.27z M40.96,26.11c2.13-0.27,2.13-3.37,0-3.63C41.14,23.72,41.14,24.87,40.96,26.11  L40.96,26.11z M15.18,22.48c-2.13,0.27-2.13,3.37,0,3.63C15,24.87,15,23.72,15.18,22.48L15.18,22.48z M15,47.82  c-1.51,0-2.75,1.24-2.75,2.75c0,1.51,1.24,2.84,2.75,2.84c1.6,0,2.84-1.24,2.84-2.84C17.83,49.06,16.59,47.82,15,47.82L15,47.82z   M17.39,46.93c0.35,0.27,0.71,0.53,1.06,0.89v-0.53c-0.44-0.89-0.71-1.86-0.8-2.92C17.57,45.16,17.48,45.96,17.39,46.93L17.39,46.93  z M15,46.22c0.35,0,0.62,0,0.89,0.09c0.18-1.06,0.18-1.95,0.18-2.75c-0.09-0.97-0.35-1.77-0.8-2.3c-0.71-0.8,0.53-1.77,1.15-0.97  c0.62,0.71,0.97,1.6,1.15,2.66c0-1.33,0.18-2.75,0.53-4.16c0.53-1.77,1.24-3.28,2.04-4.16c-0.53-0.35-0.97-0.8-1.42-1.24  c-2.84-0.09-5.14,2.04-6.38,4.34c-1.77,3.01-2.13,6.73-0.53,9.92C12.61,46.76,13.76,46.22,15,46.22L15,46.22z M61.26,54.91  c0,0.44-0.35,0.8-0.8,0.8c-0.44,0-0.71-0.35-0.71-0.8v-0.97h-1.06c-0.44,0-0.71-0.35-0.71-0.8c0-0.35,0.27-0.71,0.71-0.71h1.06  v-1.06c0-0.35,0.27-0.71,0.71-0.71c0.44,0,0.8,0.35,0.8,0.71v1.06h0.97c0.44,0,0.71,0.35,0.71,0.71c0,0.44-0.27,0.8-0.71,0.8h-0.97  V54.91z"/>
    </g><g data-name="business_name" fill="#000000" data="id:57" transform="translate(10.975555665745166,119.78442233984018) scale(2.3746468768602647)"><path d="M5.64,48.32q-1.24,0-1.9-0.7t-0.66-1.94l0-23.28q0-1.28,0.68-1.94t1.92-0.66l9.64,0q4.64,0,7.16,2.32t2.52,6.48t-2.52,6.5t-7.16,2.34l-7.12,0l0,8.24q0,1.24-0.64,1.94t-1.92,0.7z M8.2,33.4l6.32,0q2.72,0,4.12-1.22t1.4-3.58t-1.4-3.56t-4.12-1.2l-6.32,0l0,9.56z M31.16,48.28q-1.2,0-1.84-0.72t-0.64-2l0-14.68q0-1.32,0.64-2.02t1.84-0.7t1.86,0.7t0.66,2.02l0,14.68q0,1.28-0.64,2t-1.88,0.72z M31.16,24.44q-1.4,0-2.18-0.7t-0.78-1.94q0-1.28,0.78-1.96t2.18-0.68q1.44,0,2.2,0.68t0.76,1.96q0,1.24-0.76,1.94t-2.2,0.7z M47.92,48.4q-3.08,0-5.36-1.26t-3.52-3.58t-1.24-5.44q0-2.36,0.7-4.22t2.02-3.16t3.2-2t4.2-0.7q1.32,0,2.86,0.36t2.9,1.2q0.64,0.4,0.84,0.96t0.08,1.14t-0.5,1t-0.94,0.52t-1.24-0.26q-0.88-0.52-1.8-0.78t-1.76-0.26q-1.32,0-2.32,0.42t-1.7,1.2t-1.06,1.94t-0.36,2.68q0,2.96,1.42,4.66t4.02,1.7q0.84,0,1.74-0.24t1.82-0.76q0.68-0.36,1.22-0.24t0.9,0.54t0.44,1t-0.14,1.14t-0.82,0.92q-1.32,0.8-2.8,1.16t-2.8,0.36z M60.24,48.32q-1.2,0-1.84-0.66t-0.64-1.9l0-23.76q0-1.24,0.64-1.88t1.84-0.64t1.86,0.64t0.66,1.88l0,14.76l0.08,0l6.6-6.96q0.8-0.8,1.4-1.24t1.64-0.44t1.58,0.54t0.54,1.3t-0.72,1.52l-6.96,7.36l0-2.08l7.64,8.24q0.72,0.76,0.66,1.54t-0.66,1.28t-1.52,0.5q-1.12,0-1.78-0.44t-1.46-1.32l-6.96-7.28l-0.08,0l0,6.48q0,2.56-2.52,2.56z  M85.88,48.4q-3.32,0-5-1.9t-1.68-5.58l0-18.92q0-1.24,0.64-1.88t1.84-0.64t1.86,0.64t0.66,1.88l0,18.68q0,1.84,0.78,2.72t2.22,0.88q0.32,0,0.6-0.02t0.56-0.06q0.56-0.08,0.76,0.3t0.2,1.54q0,1-0.4,1.56t-1.32,0.68q-0.4,0.04-0.84,0.08t-0.88,0.04z M101.6,48.4q-3.32,0-5.72-1.24t-3.7-3.52t-1.3-5.4q0-3.04,1.26-5.32t3.48-3.58t5.06-1.3q2.08,0,3.74,0.68t2.84,1.96t1.8,3.1t0.62,4.1q0,0.72-0.5,1.1t-1.42,0.38l-12.84,0l0-2.88l11.24,0l-0.64,0.6q0-1.84-0.54-3.08t-1.56-1.9t-2.54-0.66q-1.68,0-2.86,0.78t-1.8,2.2t-0.62,3.38l0,0.28q0,3.28,1.54,4.9t4.54,1.62q1.04,0,2.34-0.26t2.46-0.9q0.84-0.48,1.48-0.42t1.02,0.46t0.46,0.98t-0.22,1.18t-1.02,1.04q-1.4,0.88-3.22,1.3t-3.38,0.42z"/></g></svg>